<svg width="301" height="172" viewBox="0 0 301 172" fill="none" xmlns="http://www.w3.org/2000/svg">
<path opacity="0.2" d="M295 164.501C295 165.881 281.344 167 264.498 167C247.652 167 234 165.881 234 164.501C234 163.119 247.652 162 264.498 162C281.343 162 295 163.119 295 164.501Z" fill="url(#paint0_radial_132_319)"/>
<path d="M245.305 128.478L297.903 109.342L288.669 130.88L245.305 128.478Z" fill="url(#paint1_linear_132_319)"/>
<path d="M245.305 128.478L297.903 109.342L248.052 104.082L245.305 128.478Z" fill="url(#paint2_linear_132_319)"/>
<path d="M248.052 104.082L252.934 87.4492L277.93 79.2122L248.052 104.082Z" fill="url(#paint3_linear_132_319)"/>
<path d="M248.052 104.082L297.903 109.342L277.93 79.2122L248.052 104.082Z" fill="url(#paint4_linear_132_319)"/>
<path d="M270.83 129.665L237.174 124.58L249.711 135.206L270.83 129.665Z" fill="url(#paint5_linear_132_319)"/>
<path d="M270.83 129.665L237.174 124.58L265.833 115.462L270.83 129.665Z" fill="url(#paint6_linear_132_319)"/>
<path d="M265.833 115.462L251.143 100.463L238.488 107.865L265.833 115.462Z" fill="url(#paint7_linear_132_319)"/>
<path d="M265.833 115.462L237.174 124.58L238.488 107.865L265.833 115.462Z" fill="url(#paint8_linear_132_319)"/>
<path d="M294.875 96.6115L270.849 123.618L269.333 109.28L294.875 96.6115Z" fill="url(#paint9_linear_132_319)"/>
<path d="M294.875 96.6115L270.849 123.618L301 110.372L294.875 96.6115Z" fill="url(#paint10_linear_132_319)"/>
<path d="M301 110.372L300.744 128.147L291.768 133.104L301 110.372Z" fill="url(#paint11_linear_132_319)"/>
<path d="M301 110.372L270.849 123.618L291.768 133.104L301 110.372Z" fill="url(#paint12_linear_132_319)"/>
<path d="M267.796 164.319L264.921 124.262L263.118 125.163L259.949 164.319H267.796Z" fill="#73482B"/>
<path d="M268.21 164.319L266.544 124.441L264.921 124.262L264.38 150.394L264.555 164.319H268.21Z" fill="#5B3B1D"/>
<path d="M266.52 133.317L275.711 129.736L278.685 120.343L279.901 120.072L276.928 130.478L266.588 136.765L266.52 133.317Z" fill="#73482B"/>
<path d="M266.656 138.926L277.4 130.614L279.901 120.072L279.428 120.14L276.388 130.141L266.317 135.818L266.656 138.926Z" fill="#5B3B1D"/>
<path opacity="0.2" d="M90.5283 167.971C90.5283 170.063 71.1929 171.758 47.3414 171.758C23.4898 171.758 4.16052 170.062 4.16052 167.971C4.16052 165.877 23.4902 164.182 47.3414 164.182C71.1929 164.182 90.5283 165.877 90.5283 167.971Z" fill="url(#paint13_radial_132_319)"/>
<path d="M79.9802 92.6295L64.0585 70.4109L25.1023 71.29L79.9802 92.6295Z" fill="url(#paint14_linear_132_319)"/>
<path d="M56.5727 133.383L79.9802 92.6295L85.5774 121.777L56.5727 133.383Z" fill="url(#paint15_linear_132_319)"/>
<path d="M56.5727 133.383L79.9802 92.6295L0 105.058L56.5727 133.383Z" fill="url(#paint16_linear_132_319)"/>
<path d="M79.9802 92.6295L25.1023 71.29L0 105.058L79.9802 92.6295Z" fill="url(#paint17_linear_132_319)"/>
<path d="M56.5727 133.383L0 105.058L16.3715 134.389L56.5727 133.383Z" fill="url(#paint18_linear_132_319)"/>
<path d="M28.6221 109.138L36.8422 128.299L71.4015 141.79L28.6221 109.138Z" fill="url(#paint19_linear_132_319)"/>
<path d="M62.0318 86.0827L28.6221 109.138L43.0168 90.3799L62.0318 86.0827Z" fill="url(#paint20_linear_132_319)"/>
<path d="M62.0318 86.0827L28.6221 109.138L89.5237 124.246L62.0318 86.0827Z" fill="url(#paint21_linear_132_319)"/>
<path d="M28.6221 109.138L71.4015 141.79L89.5237 124.246L28.6221 109.138Z" fill="url(#paint22_linear_132_319)"/>
<path d="M62.0318 86.0827L89.5237 124.246L85.379 102.158L62.0318 86.0827Z" fill="url(#paint23_linear_132_319)"/>
<path d="M48.748 166.819L48.9347 118.41L47.5385 118.877L43.8207 166.819H48.748Z" fill="#73482B"/>
<path d="M52.1049 166.819L51.031 146.179L49.6336 118.878L48.9347 118.41L47.8789 166.819H52.1049Z" fill="#5B3B1D"/>
<path d="M47.0138 129.289L38.1543 118.568L37.9395 119.516L46.8428 131.753L47.0138 129.289Z" fill="#5B3B1D"/>
<path d="M38.1543 118.568L39.7416 118.935L47.421 127.37L47.0138 129.289L38.1543 118.568Z" fill="#73482B"/>
<path d="M108.131 104.366L124.507 107.369L112.226 109.172L108.131 104.366Z" fill="url(#paint24_linear_132_319)"/>
<path d="M108.131 104.366L111.91 85.1427L127.971 103.164L108.131 104.366Z" fill="url(#paint25_linear_132_319)"/>
<path d="M108.131 104.366L124.507 107.369L127.971 103.164L108.131 104.366Z" fill="url(#paint26_linear_132_319)"/>
<path d="M111.91 85.1426L127.971 103.164L124.192 84.2416L111.91 85.1426Z" fill="url(#paint27_linear_132_319)"/>
<path d="M119.198 121.476L118.781 105.235L117.927 105.662L116.644 118.377L113.076 121.476H119.198Z" fill="#73482B"/>
<path d="M120.588 121.476L119.102 105.395L118.781 105.235L118.816 121.476H120.588Z" fill="#593A21"/>
<path d="M119.28 109.011L122.307 105.698L122.841 105.627L119.244 110.506L119.28 109.011Z" fill="#73482B"/>
<path d="M119.244 110.007L122.841 105.627H123.304L119.244 110.934V110.007Z" fill="#593A21"/>
<path opacity="0.2" d="M233.423 136.722C233.423 139.427 208.122 141.619 176.911 141.619C145.699 141.619 120.406 139.426 120.406 136.722C120.406 134.014 145.7 131.822 176.911 131.822C208.122 131.822 233.423 134.014 233.423 136.722Z" fill="url(#paint28_radial_132_319)"/>
<path d="M153.198 9.90175L143.22 46.0078L230.29 49.5077L153.198 9.90175Z" fill="url(#paint29_linear_132_319)"/>
<path d="M143.22 46.0078L194.948 87.7737L230.29 49.5077L143.22 46.0078Z" fill="url(#paint30_linear_132_319)"/>
<path d="M143.22 46.0078L194.948 87.7737L147.486 81.5373L143.22 46.0078Z" fill="url(#paint31_linear_132_319)"/>
<path d="M153.198 9.90175L200.231 0L230.29 49.5077L153.198 9.90175Z" fill="url(#paint32_linear_132_319)"/>
<path d="M160.14 27.7103L177.652 59.4131L118.19 56.1987L160.14 27.7103Z" fill="url(#paint33_linear_132_319)"/>
<path d="M177.652 59.4131L144.181 82.7488L118.19 56.1987L177.652 59.4131Z" fill="url(#paint34_linear_132_319)"/>
<path d="M177.652 59.4131L144.181 82.7488L174.396 83.536L177.652 59.4131Z" fill="url(#paint35_linear_132_319)"/>
<path d="M160.14 27.7103L135.163 30.2351L118.19 56.1987L160.14 27.7103Z" fill="url(#paint36_linear_132_319)"/>
<path d="M172.775 136.514L171.605 69.7101L168.723 71.0855L166.551 93.8451L165.285 136.514H172.775Z" fill="#73482B"/>
<path d="M189.382 136.437L179.302 133.3L175.889 117.996L172.409 70.1684L171.605 69.7101L171.39 136.514L189.382 136.437Z" fill="#5B3B1D"/>
<path d="M167.906 89.452L160.329 79.581L159.1 81.1867L167.428 93.3545L167.906 89.452Z" fill="#5B3B1D"/>
<path d="M160.329 79.581L162.104 80.191L168.111 87.6925L167.906 90.7526L160.329 79.581Z" fill="#73482B"/>
<defs>
<radialGradient id="paint0_radial_132_319" cx="0" cy="0" r="1" gradientUnits="userSpaceOnUse" gradientTransform="translate(264.5 164.493) scale(28.2842 2.1501)">
<stop/>
<stop offset="1" stop-color="white"/>
</radialGradient>
<linearGradient id="paint1_linear_132_319" x1="192.033" y1="167.833" x2="187.055" y2="111.376" gradientUnits="userSpaceOnUse">
<stop stop-color="#97D400"/>
<stop offset="1" stop-color="#56B900"/>
</linearGradient>
<linearGradient id="paint2_linear_132_319" x1="216.873" y1="132.347" x2="211.507" y2="92.913" gradientUnits="userSpaceOnUse">
<stop stop-color="#C2E400"/>
<stop offset="1" stop-color="#93D200"/>
</linearGradient>
<linearGradient id="paint3_linear_132_319" x1="238.01" y1="103.785" x2="238.772" y2="78.0526" gradientUnits="userSpaceOnUse">
<stop stop-color="#9CD400"/>
<stop offset="1" stop-color="#66BE00"/>
</linearGradient>
<linearGradient id="paint4_linear_132_319" x1="242.148" y1="122.871" x2="242.808" y2="77.0314" gradientUnits="userSpaceOnUse">
<stop stop-color="#97D400"/>
<stop offset="1" stop-color="#61B900"/>
</linearGradient>
<linearGradient id="paint5_linear_132_319" x1="307.784" y1="143.886" x2="302.96" y2="110.446" gradientUnits="userSpaceOnUse">
<stop stop-color="#60BA00"/>
<stop offset="1" stop-color="#0F9100"/>
</linearGradient>
<linearGradient id="paint6_linear_132_319" x1="290.709" y1="127.741" x2="288.353" y2="103.413" gradientUnits="userSpaceOnUse">
<stop stop-color="#9ED300"/>
<stop offset="1" stop-color="#5AB700"/>
</linearGradient>
<linearGradient id="paint7_linear_132_319" x1="272.251" y1="113.759" x2="267.567" y2="96.1052" gradientUnits="userSpaceOnUse">
<stop stop-color="#67BA00"/>
<stop offset="1" stop-color="#219800"/>
</linearGradient>
<linearGradient id="paint8_linear_132_319" x1="266.645" y1="125.104" x2="260.735" y2="101.399" gradientUnits="userSpaceOnUse">
<stop stop-color="#60BA00"/>
<stop offset="1" stop-color="#1B9100"/>
</linearGradient>
<linearGradient id="paint9_linear_132_319" x1="312.91" y1="58.7149" x2="332.487" y2="87.6449" gradientUnits="userSpaceOnUse">
<stop stop-color="#60BA00"/>
<stop offset="1" stop-color="#0F9100"/>
</linearGradient>
<linearGradient id="paint10_linear_132_319" x1="309.905" y1="85.4305" x2="324.572" y2="105.146" gradientUnits="userSpaceOnUse">
<stop stop-color="#9ED300"/>
<stop offset="1" stop-color="#5AB700"/>
</linearGradient>
<linearGradient id="paint11_linear_132_319" x1="307.85" y1="106.767" x2="315.216" y2="120.762" gradientUnits="userSpaceOnUse">
<stop stop-color="#67BA00"/>
<stop offset="1" stop-color="#219800"/>
</linearGradient>
<linearGradient id="paint12_linear_132_319" x1="298.449" y1="98.5562" x2="311.925" y2="123.296" gradientUnits="userSpaceOnUse">
<stop stop-color="#60BA00"/>
<stop offset="1" stop-color="#1B9100"/>
</linearGradient>
<radialGradient id="paint13_radial_132_319" cx="0" cy="0" r="1" gradientUnits="userSpaceOnUse" gradientTransform="translate(47.3444 167.959) scale(40.0467 3.25788)">
<stop/>
<stop offset="1" stop-color="white"/>
</radialGradient>
<linearGradient id="paint14_linear_132_319" x1="51.0231" y1="91.4368" x2="64.8768" y2="55.1353" gradientUnits="userSpaceOnUse">
<stop stop-color="#1C8900"/>
<stop offset="1" stop-color="#004F00"/>
</linearGradient>
<linearGradient id="paint15_linear_132_319" x1="77.4166" y1="186.039" x2="162.214" y2="70.0952" gradientUnits="userSpaceOnUse">
<stop stop-color="#61B100"/>
<stop offset="1" stop-color="#178400"/>
</linearGradient>
<linearGradient id="paint16_linear_132_319" x1="19.9444" y1="189.362" x2="60.2236" y2="61.6327" gradientUnits="userSpaceOnUse">
<stop stop-color="#1C8900"/>
<stop offset="1" stop-color="#004F00"/>
</linearGradient>
<linearGradient id="paint17_linear_132_319" x1="40.6732" y1="141.226" x2="89.3036" y2="60.0091" gradientUnits="userSpaceOnUse">
<stop stop-color="#61B100"/>
<stop offset="1" stop-color="#178400"/>
</linearGradient>
<linearGradient id="paint18_linear_132_319" x1="29.5861" y1="143.008" x2="45.5201" y2="118.583" gradientUnits="userSpaceOnUse">
<stop stop-color="#61B100"/>
<stop offset="1" stop-color="#178400"/>
</linearGradient>
<linearGradient id="paint19_linear_132_319" x1="58.4532" y1="114.804" x2="29.7986" y2="142.505" gradientUnits="userSpaceOnUse">
<stop stop-color="#65BF00"/>
<stop offset="1" stop-color="#159700"/>
</linearGradient>
<linearGradient id="paint20_linear_132_319" x1="68.2426" y1="42.5446" x2="-41.036" y2="101.267" gradientUnits="userSpaceOnUse">
<stop stop-color="#A5D700"/>
<stop offset="1" stop-color="#5FBC00"/>
</linearGradient>
<linearGradient id="paint21_linear_132_319" x1="112.434" y1="56.9804" x2="34.3402" y2="142.035" gradientUnits="userSpaceOnUse">
<stop stop-color="#65BF00"/>
<stop offset="1" stop-color="#159700"/>
</linearGradient>
<linearGradient id="paint22_linear_132_319" x1="74.7737" y1="87.2796" x2="10.5258" y2="130.211" gradientUnits="userSpaceOnUse">
<stop stop-color="#A5D700"/>
<stop offset="1" stop-color="#5FBC00"/>
</linearGradient>
<linearGradient id="paint23_linear_132_319" x1="80.8271" y1="94.7182" x2="68.2545" y2="102.41" gradientUnits="userSpaceOnUse">
<stop stop-color="#A5D700"/>
<stop offset="1" stop-color="#5FBC00"/>
</linearGradient>
<linearGradient id="paint24_linear_132_319" x1="106.904" y1="104.744" x2="109.686" y2="113.785" gradientUnits="userSpaceOnUse">
<stop stop-color="#00AC00"/>
<stop offset="1" stop-color="#00AC00"/>
</linearGradient>
<linearGradient id="paint25_linear_132_319" x1="104.392" y1="89.0363" x2="124.045" y2="108.382" gradientUnits="userSpaceOnUse">
<stop stop-color="#65D500"/>
<stop offset="1" stop-color="#A9E500"/>
</linearGradient>
<linearGradient id="paint26_linear_132_319" x1="111.658" y1="102.345" x2="113.486" y2="110.567" gradientUnits="userSpaceOnUse">
<stop stop-color="#00AC00"/>
<stop offset="1" stop-color="#05B600"/>
</linearGradient>
<linearGradient id="paint27_linear_132_319" x1="114.797" y1="80.6719" x2="133.764" y2="96.026" gradientUnits="userSpaceOnUse">
<stop stop-color="#D5F500"/>
<stop offset="1" stop-color="#97D800"/>
</linearGradient>
<radialGradient id="paint28_radial_132_319" cx="0" cy="0" r="1" gradientUnits="userSpaceOnUse" gradientTransform="translate(176.915 136.713) scale(52.4032 4.21322)">
<stop/>
<stop offset="1" stop-color="white"/>
</radialGradient>
<linearGradient id="paint29_linear_132_319" x1="-192.208" y1="-424.534" x2="-330.212" y2="-265.038" gradientUnits="userSpaceOnUse">
<stop stop-color="#97D400"/>
<stop offset="1" stop-color="#61B900"/>
</linearGradient>
<linearGradient id="paint30_linear_132_319" x1="-42.3076" y1="-260.549" x2="-131.571" y2="-149.273" gradientUnits="userSpaceOnUse">
<stop stop-color="#C2E400"/>
<stop offset="1" stop-color="#93D200"/>
</linearGradient>
<linearGradient id="paint31_linear_132_319" x1="45.6327" y1="-74.1441" x2="17.3605" y2="-40.9983" gradientUnits="userSpaceOnUse">
<stop stop-color="#97D400"/>
<stop offset="1" stop-color="#61B900"/>
</linearGradient>
<linearGradient id="paint32_linear_132_319" x1="94.6724" y1="-96.6486" x2="287.967" y2="142.723" gradientUnits="userSpaceOnUse">
<stop stop-color="#C2E400"/>
<stop offset="1" stop-color="#93D200"/>
</linearGradient>
<linearGradient id="paint33_linear_132_319" x1="482.61" y1="-348.095" x2="589.477" y2="-226.574" gradientUnits="userSpaceOnUse">
<stop stop-color="#70C400"/>
<stop offset="1" stop-color="#259F00"/>
</linearGradient>
<linearGradient id="paint34_linear_132_319" x1="353.445" y1="-209.151" x2="423.753" y2="-123.785" gradientUnits="userSpaceOnUse">
<stop stop-color="#ABDA00"/>
<stop offset="1" stop-color="#6AC100"/>
</linearGradient>
<linearGradient id="paint35_linear_132_319" x1="272.602" y1="-56.0679" x2="294.977" y2="-30.3068" gradientUnits="userSpaceOnUse">
<stop stop-color="#35855B"/>
<stop offset="1" stop-color="#35855B"/>
</linearGradient>
<linearGradient id="paint36_linear_132_319" x1="198.267" y1="-32.0717" x2="97.3739" y2="119.727" gradientUnits="userSpaceOnUse">
<stop stop-color="#ABDA00"/>
<stop offset="1" stop-color="#6AC100"/>
</linearGradient>
</defs>
</svg>
